<mxfile host="app.diagrams.net" agent="Mozilla/5.0 (X11; Linux x86_64; rv:133.0) Gecko/20100101 Firefox/133.0" version="24.8.4">
  <diagram id="C5RBs43oDa-KdzZeNtuy" name="Page-1">
    <mxGraphModel dx="647" dy="647" grid="1" gridSize="10" guides="1" tooltips="1" connect="1" arrows="1" fold="1" page="1" pageScale="1" pageWidth="1600" pageHeight="1200" math="0" shadow="0">
      <root>
        <mxCell id="WIyWlLk6GJQsqaUBKTNV-0" />
        <mxCell id="WIyWlLk6GJQsqaUBKTNV-1" parent="WIyWlLk6GJQsqaUBKTNV-0" />
        <mxCell id="Z2-CFZTCciD8Wmbbkiqx-13" style="edgeStyle=orthogonalEdgeStyle;rounded=0;orthogonalLoop=1;jettySize=auto;html=1;entryX=0.5;entryY=0;entryDx=0;entryDy=0;" edge="1" parent="WIyWlLk6GJQsqaUBKTNV-1" source="WIyWlLk6GJQsqaUBKTNV-3" target="Z2-CFZTCciD8Wmbbkiqx-12">
          <mxGeometry relative="1" as="geometry" />
        </mxCell>
        <mxCell id="WIyWlLk6GJQsqaUBKTNV-3" value="&lt;div&gt;Power On&lt;/div&gt;" style="rounded=1;whiteSpace=wrap;html=1;fontSize=12;glass=0;strokeWidth=1;shadow=0;" parent="WIyWlLk6GJQsqaUBKTNV-1" vertex="1">
          <mxGeometry x="740" y="40" width="120" height="40" as="geometry" />
        </mxCell>
        <mxCell id="Z2-CFZTCciD8Wmbbkiqx-90" style="edgeStyle=orthogonalEdgeStyle;rounded=0;orthogonalLoop=1;jettySize=auto;html=1;exitX=0.5;exitY=1;exitDx=0;exitDy=0;entryX=0.5;entryY=0;entryDx=0;entryDy=0;" edge="1" parent="WIyWlLk6GJQsqaUBKTNV-1" source="Z2-CFZTCciD8Wmbbkiqx-12" target="Z2-CFZTCciD8Wmbbkiqx-86">
          <mxGeometry relative="1" as="geometry">
            <mxPoint x="800" y="240" as="targetPoint" />
          </mxGeometry>
        </mxCell>
        <mxCell id="Z2-CFZTCciD8Wmbbkiqx-12" value="Set min TX power" style="rounded=0;whiteSpace=wrap;html=1;" vertex="1" parent="WIyWlLk6GJQsqaUBKTNV-1">
          <mxGeometry x="760" y="120" width="80" height="40" as="geometry" />
        </mxCell>
        <mxCell id="Z2-CFZTCciD8Wmbbkiqx-36" style="edgeStyle=orthogonalEdgeStyle;rounded=0;orthogonalLoop=1;jettySize=auto;html=1;exitX=0.5;exitY=1;exitDx=0;exitDy=0;entryX=0.5;entryY=0;entryDx=0;entryDy=0;" edge="1" parent="WIyWlLk6GJQsqaUBKTNV-1" source="Z2-CFZTCciD8Wmbbkiqx-3" target="Z2-CFZTCciD8Wmbbkiqx-126">
          <mxGeometry relative="1" as="geometry">
            <mxPoint x="450.0952380952381" y="650" as="targetPoint" />
          </mxGeometry>
        </mxCell>
        <mxCell id="Z2-CFZTCciD8Wmbbkiqx-41" value="Yes" style="edgeLabel;html=1;align=center;verticalAlign=middle;resizable=0;points=[];" vertex="1" connectable="0" parent="Z2-CFZTCciD8Wmbbkiqx-36">
          <mxGeometry x="-0.589" y="-2" relative="1" as="geometry">
            <mxPoint x="2" y="3" as="offset" />
          </mxGeometry>
        </mxCell>
        <mxCell id="Z2-CFZTCciD8Wmbbkiqx-84" style="edgeStyle=orthogonalEdgeStyle;rounded=0;orthogonalLoop=1;jettySize=auto;html=1;exitX=1;exitY=0.5;exitDx=0;exitDy=0;entryX=0;entryY=0.5;entryDx=0;entryDy=0;" edge="1" parent="WIyWlLk6GJQsqaUBKTNV-1" source="Z2-CFZTCciD8Wmbbkiqx-3" target="Z2-CFZTCciD8Wmbbkiqx-85">
          <mxGeometry relative="1" as="geometry">
            <mxPoint x="970" y="390" as="targetPoint" />
          </mxGeometry>
        </mxCell>
        <mxCell id="Z2-CFZTCciD8Wmbbkiqx-92" value="No" style="edgeLabel;html=1;align=center;verticalAlign=middle;resizable=0;points=[];" vertex="1" connectable="0" parent="Z2-CFZTCciD8Wmbbkiqx-84">
          <mxGeometry x="-0.4622" y="-3" relative="1" as="geometry">
            <mxPoint as="offset" />
          </mxGeometry>
        </mxCell>
        <mxCell id="Z2-CFZTCciD8Wmbbkiqx-3" value="&lt;div&gt;Is WiFi&lt;/div&gt;&lt;div&gt;Connected?&lt;br&gt;&lt;/div&gt;" style="rhombus;whiteSpace=wrap;html=1;" vertex="1" parent="WIyWlLk6GJQsqaUBKTNV-1">
          <mxGeometry x="750" y="360" width="100" height="80" as="geometry" />
        </mxCell>
        <mxCell id="Z2-CFZTCciD8Wmbbkiqx-17" style="edgeStyle=orthogonalEdgeStyle;rounded=0;orthogonalLoop=1;jettySize=auto;html=1;entryX=0.5;entryY=0;entryDx=0;entryDy=0;" edge="1" parent="WIyWlLk6GJQsqaUBKTNV-1" source="Z2-CFZTCciD8Wmbbkiqx-9" target="Z2-CFZTCciD8Wmbbkiqx-18">
          <mxGeometry relative="1" as="geometry">
            <mxPoint x="740" y="790" as="targetPoint" />
          </mxGeometry>
        </mxCell>
        <mxCell id="Z2-CFZTCciD8Wmbbkiqx-9" value="&lt;div&gt;Try Connect&lt;/div&gt;&lt;div&gt;to WiFi&lt;br&gt;&lt;/div&gt;" style="rounded=0;whiteSpace=wrap;html=1;" vertex="1" parent="WIyWlLk6GJQsqaUBKTNV-1">
          <mxGeometry x="940" y="600" width="80" height="40" as="geometry" />
        </mxCell>
        <mxCell id="Z2-CFZTCciD8Wmbbkiqx-32" style="edgeStyle=orthogonalEdgeStyle;rounded=0;orthogonalLoop=1;jettySize=auto;html=1;exitX=1;exitY=0.5;exitDx=0;exitDy=0;entryX=0;entryY=0.5;entryDx=0;entryDy=0;" edge="1" parent="WIyWlLk6GJQsqaUBKTNV-1" source="Z2-CFZTCciD8Wmbbkiqx-18" target="Z2-CFZTCciD8Wmbbkiqx-23">
          <mxGeometry relative="1" as="geometry">
            <mxPoint x="790" y="899.76" as="sourcePoint" />
            <mxPoint x="855" y="899.76" as="targetPoint" />
          </mxGeometry>
        </mxCell>
        <mxCell id="Z2-CFZTCciD8Wmbbkiqx-33" value="No" style="edgeLabel;html=1;align=center;verticalAlign=middle;resizable=0;points=[];" vertex="1" connectable="0" parent="Z2-CFZTCciD8Wmbbkiqx-32">
          <mxGeometry x="-0.1546" relative="1" as="geometry">
            <mxPoint x="-4" as="offset" />
          </mxGeometry>
        </mxCell>
        <mxCell id="Z2-CFZTCciD8Wmbbkiqx-39" style="edgeStyle=orthogonalEdgeStyle;rounded=0;orthogonalLoop=1;jettySize=auto;html=1;entryX=1;entryY=0.5;entryDx=0;entryDy=0;" edge="1" parent="WIyWlLk6GJQsqaUBKTNV-1" source="Z2-CFZTCciD8Wmbbkiqx-18" target="Z2-CFZTCciD8Wmbbkiqx-126">
          <mxGeometry relative="1" as="geometry">
            <mxPoint x="450" y="720" as="targetPoint" />
            <Array as="points">
              <mxPoint x="870" y="720" />
              <mxPoint x="870" y="520" />
            </Array>
          </mxGeometry>
        </mxCell>
        <mxCell id="Z2-CFZTCciD8Wmbbkiqx-40" value="Yes" style="edgeLabel;html=1;align=center;verticalAlign=middle;resizable=0;points=[];" vertex="1" connectable="0" parent="Z2-CFZTCciD8Wmbbkiqx-39">
          <mxGeometry x="0.1485" y="2" relative="1" as="geometry">
            <mxPoint x="32" y="101" as="offset" />
          </mxGeometry>
        </mxCell>
        <mxCell id="Z2-CFZTCciD8Wmbbkiqx-18" value="&lt;div&gt;Is WiFi&lt;/div&gt;&lt;div&gt;Connected?&lt;br&gt;&lt;/div&gt;" style="rhombus;whiteSpace=wrap;html=1;" vertex="1" parent="WIyWlLk6GJQsqaUBKTNV-1">
          <mxGeometry x="930" y="680" width="100" height="80" as="geometry" />
        </mxCell>
        <mxCell id="Z2-CFZTCciD8Wmbbkiqx-35" style="edgeStyle=orthogonalEdgeStyle;rounded=0;orthogonalLoop=1;jettySize=auto;html=1;exitX=0.5;exitY=0;exitDx=0;exitDy=0;entryX=1;entryY=0.5;entryDx=0;entryDy=0;" edge="1" parent="WIyWlLk6GJQsqaUBKTNV-1" source="Z2-CFZTCciD8Wmbbkiqx-21" target="Z2-CFZTCciD8Wmbbkiqx-85">
          <mxGeometry relative="1" as="geometry">
            <mxPoint x="905" y="700" as="targetPoint" />
            <Array as="points">
              <mxPoint x="1320" y="400" />
            </Array>
          </mxGeometry>
        </mxCell>
        <mxCell id="Z2-CFZTCciD8Wmbbkiqx-21" value="Set max TX power" style="rounded=0;whiteSpace=wrap;html=1;" vertex="1" parent="WIyWlLk6GJQsqaUBKTNV-1">
          <mxGeometry x="1280" y="700" width="80" height="40" as="geometry" />
        </mxCell>
        <mxCell id="Z2-CFZTCciD8Wmbbkiqx-28" style="edgeStyle=orthogonalEdgeStyle;rounded=0;orthogonalLoop=1;jettySize=auto;html=1;exitX=0.5;exitY=0;exitDx=0;exitDy=0;entryX=1;entryY=0.5;entryDx=0;entryDy=0;" edge="1" parent="WIyWlLk6GJQsqaUBKTNV-1" source="Z2-CFZTCciD8Wmbbkiqx-23" target="Z2-CFZTCciD8Wmbbkiqx-9">
          <mxGeometry relative="1" as="geometry" />
        </mxCell>
        <mxCell id="Z2-CFZTCciD8Wmbbkiqx-29" value="No" style="edgeLabel;html=1;align=center;verticalAlign=middle;resizable=0;points=[];" vertex="1" connectable="0" parent="Z2-CFZTCciD8Wmbbkiqx-28">
          <mxGeometry x="-0.6006" y="1" relative="1" as="geometry">
            <mxPoint x="1" y="10" as="offset" />
          </mxGeometry>
        </mxCell>
        <mxCell id="Z2-CFZTCciD8Wmbbkiqx-30" style="edgeStyle=orthogonalEdgeStyle;rounded=0;orthogonalLoop=1;jettySize=auto;html=1;exitX=1;exitY=0.5;exitDx=0;exitDy=0;entryX=0;entryY=0.5;entryDx=0;entryDy=0;" edge="1" parent="WIyWlLk6GJQsqaUBKTNV-1" source="Z2-CFZTCciD8Wmbbkiqx-23" target="Z2-CFZTCciD8Wmbbkiqx-21">
          <mxGeometry relative="1" as="geometry">
            <mxPoint x="1240" y="700" as="targetPoint" />
          </mxGeometry>
        </mxCell>
        <mxCell id="Z2-CFZTCciD8Wmbbkiqx-31" value="Yes" style="edgeLabel;html=1;align=center;verticalAlign=middle;resizable=0;points=[];" vertex="1" connectable="0" parent="Z2-CFZTCciD8Wmbbkiqx-30">
          <mxGeometry x="-0.3645" y="-1" relative="1" as="geometry">
            <mxPoint y="-1" as="offset" />
          </mxGeometry>
        </mxCell>
        <mxCell id="Z2-CFZTCciD8Wmbbkiqx-23" value="&lt;div&gt;Is powered&lt;/div&gt;&lt;div&gt;for &amp;gt;5 mins?&lt;br&gt;&lt;/div&gt;" style="rhombus;whiteSpace=wrap;html=1;" vertex="1" parent="WIyWlLk6GJQsqaUBKTNV-1">
          <mxGeometry x="1110" y="680" width="100" height="80" as="geometry" />
        </mxCell>
        <mxCell id="Z2-CFZTCciD8Wmbbkiqx-61" style="edgeStyle=orthogonalEdgeStyle;rounded=0;orthogonalLoop=1;jettySize=auto;html=1;exitX=0;exitY=0.5;exitDx=0;exitDy=0;entryX=1;entryY=0.5;entryDx=0;entryDy=0;" edge="1" parent="WIyWlLk6GJQsqaUBKTNV-1" source="Z2-CFZTCciD8Wmbbkiqx-38" target="Z2-CFZTCciD8Wmbbkiqx-60">
          <mxGeometry relative="1" as="geometry">
            <Array as="points">
              <mxPoint x="470" y="520" />
              <mxPoint x="470" y="520" />
            </Array>
          </mxGeometry>
        </mxCell>
        <mxCell id="Z2-CFZTCciD8Wmbbkiqx-62" value="Yes" style="edgeLabel;html=1;align=center;verticalAlign=middle;resizable=0;points=[];" vertex="1" connectable="0" parent="Z2-CFZTCciD8Wmbbkiqx-61">
          <mxGeometry x="-0.3367" y="-1" relative="1" as="geometry">
            <mxPoint x="-13" y="1" as="offset" />
          </mxGeometry>
        </mxCell>
        <mxCell id="Z2-CFZTCciD8Wmbbkiqx-109" style="edgeStyle=orthogonalEdgeStyle;rounded=0;orthogonalLoop=1;jettySize=auto;html=1;exitX=0.5;exitY=1;exitDx=0;exitDy=0;entryX=0.5;entryY=0;entryDx=0;entryDy=0;" edge="1" parent="WIyWlLk6GJQsqaUBKTNV-1" source="Z2-CFZTCciD8Wmbbkiqx-38" target="Z2-CFZTCciD8Wmbbkiqx-111">
          <mxGeometry relative="1" as="geometry">
            <mxPoint x="589.8260869565217" y="600" as="targetPoint" />
          </mxGeometry>
        </mxCell>
        <mxCell id="Z2-CFZTCciD8Wmbbkiqx-110" value="No" style="edgeLabel;html=1;align=center;verticalAlign=middle;resizable=0;points=[];" vertex="1" connectable="0" parent="Z2-CFZTCciD8Wmbbkiqx-109">
          <mxGeometry x="-0.2151" y="1" relative="1" as="geometry">
            <mxPoint x="-1" as="offset" />
          </mxGeometry>
        </mxCell>
        <mxCell id="Z2-CFZTCciD8Wmbbkiqx-38" value="&lt;div&gt;Was MQTT&lt;/div&gt;&lt;div&gt;Connected?&lt;br&gt;&lt;/div&gt;" style="rhombus;whiteSpace=wrap;html=1;" vertex="1" parent="WIyWlLk6GJQsqaUBKTNV-1">
          <mxGeometry x="550" y="480" width="100" height="80" as="geometry" />
        </mxCell>
        <mxCell id="Z2-CFZTCciD8Wmbbkiqx-66" style="edgeStyle=orthogonalEdgeStyle;rounded=0;orthogonalLoop=1;jettySize=auto;html=1;exitX=0.5;exitY=1;exitDx=0;exitDy=0;entryX=0.5;entryY=0;entryDx=0;entryDy=0;" edge="1" parent="WIyWlLk6GJQsqaUBKTNV-1" source="Z2-CFZTCciD8Wmbbkiqx-60" target="Z2-CFZTCciD8Wmbbkiqx-65">
          <mxGeometry relative="1" as="geometry">
            <mxPoint x="330" y="580" as="sourcePoint" />
            <mxPoint x="290" y="580" as="targetPoint" />
            <Array as="points">
              <mxPoint x="320" y="580" />
              <mxPoint x="320" y="580" />
            </Array>
          </mxGeometry>
        </mxCell>
        <mxCell id="Z2-CFZTCciD8Wmbbkiqx-107" value="No" style="edgeLabel;html=1;align=center;verticalAlign=middle;resizable=0;points=[];" vertex="1" connectable="0" parent="Z2-CFZTCciD8Wmbbkiqx-66">
          <mxGeometry x="-0.6855" y="-1" relative="1" as="geometry">
            <mxPoint x="1" y="4" as="offset" />
          </mxGeometry>
        </mxCell>
        <mxCell id="Z2-CFZTCciD8Wmbbkiqx-103" style="edgeStyle=orthogonalEdgeStyle;rounded=0;orthogonalLoop=1;jettySize=auto;html=1;exitX=0;exitY=0.5;exitDx=0;exitDy=0;entryX=1;entryY=0.5;entryDx=0;entryDy=0;" edge="1" parent="WIyWlLk6GJQsqaUBKTNV-1" source="Z2-CFZTCciD8Wmbbkiqx-60" target="Z2-CFZTCciD8Wmbbkiqx-119">
          <mxGeometry relative="1" as="geometry" />
        </mxCell>
        <mxCell id="Z2-CFZTCciD8Wmbbkiqx-104" value="Yes" style="edgeLabel;html=1;align=center;verticalAlign=middle;resizable=0;points=[];" vertex="1" connectable="0" parent="Z2-CFZTCciD8Wmbbkiqx-103">
          <mxGeometry x="0.2205" y="-1" relative="1" as="geometry">
            <mxPoint x="9" y="1" as="offset" />
          </mxGeometry>
        </mxCell>
        <mxCell id="Z2-CFZTCciD8Wmbbkiqx-60" value="&lt;div&gt;Is MQTT&lt;/div&gt;&lt;div&gt;Connected?&lt;br&gt;&lt;/div&gt;" style="rhombus;whiteSpace=wrap;html=1;" vertex="1" parent="WIyWlLk6GJQsqaUBKTNV-1">
          <mxGeometry x="270" y="480" width="100" height="80" as="geometry" />
        </mxCell>
        <mxCell id="Z2-CFZTCciD8Wmbbkiqx-72" style="edgeStyle=orthogonalEdgeStyle;rounded=0;orthogonalLoop=1;jettySize=auto;html=1;entryX=0.5;entryY=0;entryDx=0;entryDy=0;" edge="1" parent="WIyWlLk6GJQsqaUBKTNV-1" source="Z2-CFZTCciD8Wmbbkiqx-65" target="Z2-CFZTCciD8Wmbbkiqx-120">
          <mxGeometry relative="1" as="geometry" />
        </mxCell>
        <mxCell id="Z2-CFZTCciD8Wmbbkiqx-65" value="&lt;div&gt;Disconnect&lt;/div&gt;&lt;div&gt;WiFi&lt;br&gt;&lt;/div&gt;" style="rounded=0;whiteSpace=wrap;html=1;" vertex="1" parent="WIyWlLk6GJQsqaUBKTNV-1">
          <mxGeometry x="280" y="600" width="80" height="40" as="geometry" />
        </mxCell>
        <mxCell id="Z2-CFZTCciD8Wmbbkiqx-71" value="Sleep 5 mins" style="rounded=0;whiteSpace=wrap;html=1;" vertex="1" parent="WIyWlLk6GJQsqaUBKTNV-1">
          <mxGeometry x="280" y="760" width="80" height="40" as="geometry" />
        </mxCell>
        <mxCell id="Z2-CFZTCciD8Wmbbkiqx-93" style="edgeStyle=orthogonalEdgeStyle;rounded=0;orthogonalLoop=1;jettySize=auto;html=1;entryX=0.5;entryY=0;entryDx=0;entryDy=0;exitX=0.5;exitY=1;exitDx=0;exitDy=0;" edge="1" parent="WIyWlLk6GJQsqaUBKTNV-1" source="Z2-CFZTCciD8Wmbbkiqx-85" target="Z2-CFZTCciD8Wmbbkiqx-94">
          <mxGeometry relative="1" as="geometry">
            <mxPoint x="1120" y="440" as="targetPoint" />
            <Array as="points">
              <mxPoint x="980" y="480" />
              <mxPoint x="1040" y="480" />
            </Array>
          </mxGeometry>
        </mxCell>
        <mxCell id="Z2-CFZTCciD8Wmbbkiqx-97" value="No" style="edgeLabel;html=1;align=center;verticalAlign=middle;resizable=0;points=[];" vertex="1" connectable="0" parent="Z2-CFZTCciD8Wmbbkiqx-93">
          <mxGeometry x="-0.749" y="-2" relative="1" as="geometry">
            <mxPoint x="32" y="22" as="offset" />
          </mxGeometry>
        </mxCell>
        <mxCell id="Z2-CFZTCciD8Wmbbkiqx-96" style="edgeStyle=orthogonalEdgeStyle;rounded=0;orthogonalLoop=1;jettySize=auto;html=1;exitX=0.5;exitY=1;exitDx=0;exitDy=0;entryX=0.5;entryY=0;entryDx=0;entryDy=0;" edge="1" parent="WIyWlLk6GJQsqaUBKTNV-1" source="Z2-CFZTCciD8Wmbbkiqx-85" target="Z2-CFZTCciD8Wmbbkiqx-95">
          <mxGeometry relative="1" as="geometry">
            <Array as="points">
              <mxPoint x="980" y="480" />
              <mxPoint x="920" y="480" />
            </Array>
          </mxGeometry>
        </mxCell>
        <mxCell id="Z2-CFZTCciD8Wmbbkiqx-98" value="Yes" style="edgeLabel;html=1;align=center;verticalAlign=middle;resizable=0;points=[];" vertex="1" connectable="0" parent="Z2-CFZTCciD8Wmbbkiqx-96">
          <mxGeometry x="-0.584" y="1" relative="1" as="geometry">
            <mxPoint x="-36" y="11" as="offset" />
          </mxGeometry>
        </mxCell>
        <mxCell id="Z2-CFZTCciD8Wmbbkiqx-85" value="&lt;div&gt;Is max TX&lt;/div&gt;&lt;div&gt;power?&lt;br&gt;&lt;/div&gt;" style="rhombus;whiteSpace=wrap;html=1;" vertex="1" parent="WIyWlLk6GJQsqaUBKTNV-1">
          <mxGeometry x="930" y="360" width="100" height="80" as="geometry" />
        </mxCell>
        <mxCell id="Z2-CFZTCciD8Wmbbkiqx-88" style="edgeStyle=orthogonalEdgeStyle;rounded=0;orthogonalLoop=1;jettySize=auto;html=1;exitX=0.5;exitY=1;exitDx=0;exitDy=0;entryX=0.5;entryY=0;entryDx=0;entryDy=0;" edge="1" parent="WIyWlLk6GJQsqaUBKTNV-1" source="Z2-CFZTCciD8Wmbbkiqx-81" target="Z2-CFZTCciD8Wmbbkiqx-3">
          <mxGeometry relative="1" as="geometry" />
        </mxCell>
        <mxCell id="Z2-CFZTCciD8Wmbbkiqx-81" value="Sleep 1sec" style="rounded=0;whiteSpace=wrap;html=1;" vertex="1" parent="WIyWlLk6GJQsqaUBKTNV-1">
          <mxGeometry x="760" y="280" width="80" height="40" as="geometry" />
        </mxCell>
        <mxCell id="Z2-CFZTCciD8Wmbbkiqx-87" style="edgeStyle=orthogonalEdgeStyle;rounded=0;orthogonalLoop=1;jettySize=auto;html=1;exitX=0.5;exitY=1;exitDx=0;exitDy=0;entryX=0.5;entryY=0;entryDx=0;entryDy=0;" edge="1" parent="WIyWlLk6GJQsqaUBKTNV-1" source="Z2-CFZTCciD8Wmbbkiqx-86" target="Z2-CFZTCciD8Wmbbkiqx-81">
          <mxGeometry relative="1" as="geometry" />
        </mxCell>
        <mxCell id="Z2-CFZTCciD8Wmbbkiqx-86" value="&lt;div&gt;Start Tick&lt;/div&gt;" style="rounded=1;whiteSpace=wrap;html=1;fontSize=12;glass=0;strokeWidth=1;shadow=0;gradientColor=none;" vertex="1" parent="WIyWlLk6GJQsqaUBKTNV-1">
          <mxGeometry x="740" y="200" width="120" height="40" as="geometry" />
        </mxCell>
        <mxCell id="Z2-CFZTCciD8Wmbbkiqx-101" style="edgeStyle=orthogonalEdgeStyle;rounded=0;orthogonalLoop=1;jettySize=auto;html=1;exitX=0;exitY=0.5;exitDx=0;exitDy=0;entryX=0.5;entryY=0;entryDx=0;entryDy=0;" edge="1" parent="WIyWlLk6GJQsqaUBKTNV-1" source="Z2-CFZTCciD8Wmbbkiqx-94" target="Z2-CFZTCciD8Wmbbkiqx-9">
          <mxGeometry relative="1" as="geometry" />
        </mxCell>
        <mxCell id="Z2-CFZTCciD8Wmbbkiqx-94" value="&lt;div&gt;Set LED&lt;/div&gt;&lt;div&gt;dark blue&lt;br&gt;&lt;/div&gt;" style="rounded=0;whiteSpace=wrap;html=1;" vertex="1" parent="WIyWlLk6GJQsqaUBKTNV-1">
          <mxGeometry x="1000" y="520" width="80" height="40" as="geometry" />
        </mxCell>
        <mxCell id="Z2-CFZTCciD8Wmbbkiqx-99" style="edgeStyle=orthogonalEdgeStyle;rounded=0;orthogonalLoop=1;jettySize=auto;html=1;exitX=1;exitY=0.5;exitDx=0;exitDy=0;entryX=0.5;entryY=0;entryDx=0;entryDy=0;" edge="1" parent="WIyWlLk6GJQsqaUBKTNV-1" source="Z2-CFZTCciD8Wmbbkiqx-95" target="Z2-CFZTCciD8Wmbbkiqx-9">
          <mxGeometry relative="1" as="geometry" />
        </mxCell>
        <mxCell id="Z2-CFZTCciD8Wmbbkiqx-95" value="&lt;div&gt;Set LED&lt;/div&gt;&lt;div&gt;light blue&lt;br&gt;&lt;/div&gt;" style="rounded=0;whiteSpace=wrap;html=1;" vertex="1" parent="WIyWlLk6GJQsqaUBKTNV-1">
          <mxGeometry x="880" y="520" width="80" height="40" as="geometry" />
        </mxCell>
        <mxCell id="Z2-CFZTCciD8Wmbbkiqx-118" style="edgeStyle=orthogonalEdgeStyle;rounded=0;orthogonalLoop=1;jettySize=auto;html=1;exitX=0.5;exitY=1;exitDx=0;exitDy=0;entryX=0.5;entryY=0;entryDx=0;entryDy=0;" edge="1" parent="WIyWlLk6GJQsqaUBKTNV-1" source="Z2-CFZTCciD8Wmbbkiqx-108" target="Z2-CFZTCciD8Wmbbkiqx-133">
          <mxGeometry relative="1" as="geometry" />
        </mxCell>
        <mxCell id="Z2-CFZTCciD8Wmbbkiqx-108" value="&lt;div&gt;Send ON&lt;/div&gt;&lt;div&gt;payload&lt;br&gt;&lt;/div&gt;" style="rounded=0;whiteSpace=wrap;html=1;" vertex="1" parent="WIyWlLk6GJQsqaUBKTNV-1">
          <mxGeometry x="560" y="720" width="80" height="40" as="geometry" />
        </mxCell>
        <mxCell id="Z2-CFZTCciD8Wmbbkiqx-112" style="edgeStyle=orthogonalEdgeStyle;rounded=0;orthogonalLoop=1;jettySize=auto;html=1;entryX=1;entryY=0.5;entryDx=0;entryDy=0;" edge="1" parent="WIyWlLk6GJQsqaUBKTNV-1" source="Z2-CFZTCciD8Wmbbkiqx-111" target="Z2-CFZTCciD8Wmbbkiqx-114">
          <mxGeometry relative="1" as="geometry">
            <mxPoint x="440" y="640" as="targetPoint" />
          </mxGeometry>
        </mxCell>
        <mxCell id="Z2-CFZTCciD8Wmbbkiqx-113" value="No" style="edgeLabel;html=1;align=center;verticalAlign=middle;resizable=0;points=[];" vertex="1" connectable="0" parent="Z2-CFZTCciD8Wmbbkiqx-112">
          <mxGeometry x="-0.0664" y="1" relative="1" as="geometry">
            <mxPoint x="7" y="1" as="offset" />
          </mxGeometry>
        </mxCell>
        <mxCell id="Z2-CFZTCciD8Wmbbkiqx-115" style="edgeStyle=orthogonalEdgeStyle;rounded=0;orthogonalLoop=1;jettySize=auto;html=1;exitX=0.5;exitY=1;exitDx=0;exitDy=0;entryX=0.5;entryY=0;entryDx=0;entryDy=0;" edge="1" parent="WIyWlLk6GJQsqaUBKTNV-1" source="Z2-CFZTCciD8Wmbbkiqx-111" target="Z2-CFZTCciD8Wmbbkiqx-108">
          <mxGeometry relative="1" as="geometry" />
        </mxCell>
        <mxCell id="Z2-CFZTCciD8Wmbbkiqx-116" value="Yes" style="edgeLabel;html=1;align=center;verticalAlign=middle;resizable=0;points=[];" vertex="1" connectable="0" parent="Z2-CFZTCciD8Wmbbkiqx-115">
          <mxGeometry x="-0.3303" relative="1" as="geometry">
            <mxPoint as="offset" />
          </mxGeometry>
        </mxCell>
        <mxCell id="Z2-CFZTCciD8Wmbbkiqx-111" value="&lt;div&gt;Is MQTT&lt;/div&gt;&lt;div&gt;Connected?&lt;br&gt;&lt;/div&gt;" style="rhombus;whiteSpace=wrap;html=1;" vertex="1" parent="WIyWlLk6GJQsqaUBKTNV-1">
          <mxGeometry x="550" y="600" width="100" height="80" as="geometry" />
        </mxCell>
        <mxCell id="Z2-CFZTCciD8Wmbbkiqx-114" value="&lt;div&gt;Set LED&lt;/div&gt;&lt;div&gt;purple&lt;br&gt;&lt;/div&gt;" style="rounded=0;whiteSpace=wrap;html=1;" vertex="1" parent="WIyWlLk6GJQsqaUBKTNV-1">
          <mxGeometry x="440" y="620" width="80" height="40" as="geometry" />
        </mxCell>
        <mxCell id="Z2-CFZTCciD8Wmbbkiqx-117" value="&lt;div&gt;Set LED&lt;/div&gt;&lt;div&gt;teal&lt;br&gt;&lt;/div&gt;" style="rounded=0;whiteSpace=wrap;html=1;" vertex="1" parent="WIyWlLk6GJQsqaUBKTNV-1">
          <mxGeometry x="440" y="800" width="80" height="40" as="geometry" />
        </mxCell>
        <mxCell id="Z2-CFZTCciD8Wmbbkiqx-119" value="&lt;div&gt;Set LED&lt;/div&gt;&lt;div&gt;green&lt;br&gt;&lt;/div&gt;" style="rounded=0;whiteSpace=wrap;html=1;" vertex="1" parent="WIyWlLk6GJQsqaUBKTNV-1">
          <mxGeometry x="120" y="500" width="80" height="40" as="geometry" />
        </mxCell>
        <mxCell id="Z2-CFZTCciD8Wmbbkiqx-121" style="edgeStyle=orthogonalEdgeStyle;rounded=0;orthogonalLoop=1;jettySize=auto;html=1;exitX=0.5;exitY=1;exitDx=0;exitDy=0;entryX=0.5;entryY=0;entryDx=0;entryDy=0;" edge="1" parent="WIyWlLk6GJQsqaUBKTNV-1" source="Z2-CFZTCciD8Wmbbkiqx-120" target="Z2-CFZTCciD8Wmbbkiqx-71">
          <mxGeometry relative="1" as="geometry" />
        </mxCell>
        <mxCell id="Z2-CFZTCciD8Wmbbkiqx-120" value="&lt;div&gt;Set LED&lt;/div&gt;&lt;div&gt;yellow&lt;br&gt;&lt;/div&gt;" style="rounded=0;whiteSpace=wrap;html=1;" vertex="1" parent="WIyWlLk6GJQsqaUBKTNV-1">
          <mxGeometry x="280" y="680" width="80" height="40" as="geometry" />
        </mxCell>
        <mxCell id="Z2-CFZTCciD8Wmbbkiqx-124" value="&lt;h1 style=&quot;margin-top: 0px;&quot;&gt;Notes&lt;/h1&gt;&lt;div&gt;- All `Set LED` calls will have the brightness set by the WiFi RSSI. This means all colors should have no more than 1 for each value, as it&#39;ll get multiplied by the RSSI.&lt;br&gt;&lt;/div&gt;" style="text;html=1;whiteSpace=wrap;overflow=hidden;rounded=0;" vertex="1" parent="WIyWlLk6GJQsqaUBKTNV-1">
          <mxGeometry x="920" y="40" width="250" height="140" as="geometry" />
        </mxCell>
        <mxCell id="Z2-CFZTCciD8Wmbbkiqx-127" style="edgeStyle=orthogonalEdgeStyle;rounded=0;orthogonalLoop=1;jettySize=auto;html=1;exitX=0;exitY=0.5;exitDx=0;exitDy=0;entryX=1;entryY=0.5;entryDx=0;entryDy=0;" edge="1" parent="WIyWlLk6GJQsqaUBKTNV-1" source="Z2-CFZTCciD8Wmbbkiqx-126" target="Z2-CFZTCciD8Wmbbkiqx-38">
          <mxGeometry relative="1" as="geometry" />
        </mxCell>
        <mxCell id="Z2-CFZTCciD8Wmbbkiqx-131" value="Yes" style="edgeLabel;html=1;align=center;verticalAlign=middle;resizable=0;points=[];" vertex="1" connectable="0" parent="Z2-CFZTCciD8Wmbbkiqx-127">
          <mxGeometry x="-0.4884" relative="1" as="geometry">
            <mxPoint as="offset" />
          </mxGeometry>
        </mxCell>
        <mxCell id="Z2-CFZTCciD8Wmbbkiqx-129" style="edgeStyle=orthogonalEdgeStyle;rounded=0;orthogonalLoop=1;jettySize=auto;html=1;exitX=0.5;exitY=1;exitDx=0;exitDy=0;entryX=0.5;entryY=0;entryDx=0;entryDy=0;" edge="1" parent="WIyWlLk6GJQsqaUBKTNV-1" source="Z2-CFZTCciD8Wmbbkiqx-126" target="Z2-CFZTCciD8Wmbbkiqx-128">
          <mxGeometry relative="1" as="geometry" />
        </mxCell>
        <mxCell id="Z2-CFZTCciD8Wmbbkiqx-132" value="No" style="edgeLabel;html=1;align=center;verticalAlign=middle;resizable=0;points=[];" vertex="1" connectable="0" parent="Z2-CFZTCciD8Wmbbkiqx-129">
          <mxGeometry x="-0.2914" y="1" relative="1" as="geometry">
            <mxPoint as="offset" />
          </mxGeometry>
        </mxCell>
        <mxCell id="Z2-CFZTCciD8Wmbbkiqx-126" value="&lt;div&gt;Has MQTT&lt;/div&gt;&lt;div&gt;client?&lt;br&gt;&lt;/div&gt;" style="rhombus;whiteSpace=wrap;html=1;" vertex="1" parent="WIyWlLk6GJQsqaUBKTNV-1">
          <mxGeometry x="750" y="480" width="100" height="80" as="geometry" />
        </mxCell>
        <mxCell id="Z2-CFZTCciD8Wmbbkiqx-130" style="edgeStyle=orthogonalEdgeStyle;rounded=0;orthogonalLoop=1;jettySize=auto;html=1;exitX=0;exitY=0.5;exitDx=0;exitDy=0;entryX=1;entryY=0.5;entryDx=0;entryDy=0;" edge="1" parent="WIyWlLk6GJQsqaUBKTNV-1" source="Z2-CFZTCciD8Wmbbkiqx-128" target="Z2-CFZTCciD8Wmbbkiqx-38">
          <mxGeometry relative="1" as="geometry" />
        </mxCell>
        <mxCell id="Z2-CFZTCciD8Wmbbkiqx-128" value="&lt;div&gt;Create&lt;/div&gt;&lt;div&gt;MQTT client&lt;br&gt;&lt;/div&gt;" style="rounded=0;whiteSpace=wrap;html=1;" vertex="1" parent="WIyWlLk6GJQsqaUBKTNV-1">
          <mxGeometry x="760" y="600" width="80" height="40" as="geometry" />
        </mxCell>
        <mxCell id="Z2-CFZTCciD8Wmbbkiqx-134" style="edgeStyle=orthogonalEdgeStyle;rounded=0;orthogonalLoop=1;jettySize=auto;html=1;exitX=0;exitY=0.5;exitDx=0;exitDy=0;entryX=1;entryY=0.5;entryDx=0;entryDy=0;" edge="1" parent="WIyWlLk6GJQsqaUBKTNV-1" source="Z2-CFZTCciD8Wmbbkiqx-133" target="Z2-CFZTCciD8Wmbbkiqx-117">
          <mxGeometry relative="1" as="geometry" />
        </mxCell>
        <mxCell id="Z2-CFZTCciD8Wmbbkiqx-137" value="No" style="edgeLabel;html=1;align=center;verticalAlign=middle;resizable=0;points=[];" vertex="1" connectable="0" parent="Z2-CFZTCciD8Wmbbkiqx-134">
          <mxGeometry x="-0.0603" relative="1" as="geometry">
            <mxPoint as="offset" />
          </mxGeometry>
        </mxCell>
        <mxCell id="Z2-CFZTCciD8Wmbbkiqx-136" style="edgeStyle=orthogonalEdgeStyle;rounded=0;orthogonalLoop=1;jettySize=auto;html=1;exitX=1;exitY=0.5;exitDx=0;exitDy=0;entryX=0;entryY=0.5;entryDx=0;entryDy=0;" edge="1" parent="WIyWlLk6GJQsqaUBKTNV-1" source="Z2-CFZTCciD8Wmbbkiqx-133" target="Z2-CFZTCciD8Wmbbkiqx-135">
          <mxGeometry relative="1" as="geometry" />
        </mxCell>
        <mxCell id="Z2-CFZTCciD8Wmbbkiqx-138" value="Yes" style="edgeLabel;html=1;align=center;verticalAlign=middle;resizable=0;points=[];" vertex="1" connectable="0" parent="Z2-CFZTCciD8Wmbbkiqx-136">
          <mxGeometry x="-0.1746" y="1" relative="1" as="geometry">
            <mxPoint as="offset" />
          </mxGeometry>
        </mxCell>
        <mxCell id="Z2-CFZTCciD8Wmbbkiqx-133" value="Error?" style="rhombus;whiteSpace=wrap;html=1;" vertex="1" parent="WIyWlLk6GJQsqaUBKTNV-1">
          <mxGeometry x="565" y="790" width="70" height="60" as="geometry" />
        </mxCell>
        <mxCell id="Z2-CFZTCciD8Wmbbkiqx-135" value="&lt;div&gt;Set LED&lt;/div&gt;&lt;div&gt;red&lt;br&gt;&lt;/div&gt;" style="rounded=0;whiteSpace=wrap;html=1;" vertex="1" parent="WIyWlLk6GJQsqaUBKTNV-1">
          <mxGeometry x="680" y="800" width="80" height="40" as="geometry" />
        </mxCell>
      </root>
    </mxGraphModel>
  </diagram>
</mxfile>
